# xmcd
#
# Track frame offsets: 
#        150
#        12983
#        23954
#        37725
#        50121
#        64055
#        76815
#        86456
#        97313
#        110170
#        124428
#        136644
#        149026
#        162800
#        174718
#        187076
#        198993
#        211203
#        222949
#        237061
#        250151
#        262920
#        275898
#        287354
#        297530
#        310835
#
# Disc length: 4320 seconds
#
# Revision: 1
# Processed by: cddbd v1.5.2PL0 Copyright (c) Steve Scherf et al.
# Submitted via: ExactAudioCopyFreeDBPlugin 1.0
#
DISCID=8c10de1a
DTITLE=Various Artist - Roots of Rockabilly vol. 1 - 1950
DYEAR=2004
DGENRE=Country
TTITLE0=The Delmore Brothers - Blues Stay Away From Me
TTITLE1=Leon Payne - I'm a Lone Wolf
TTITLE2=T. Texas Tyler and his Oklahoma Melody Boys - My Bucket's Got a 
TTITLE2=Hole in it
TTITLE3=Jimmie Skinner - You Don't Know My Mind
TTITLE4=Clyde Moody - Six White Horses
TTITLE5=Hank Thompson and his Brazos Valley Boys - Humpty Dumpty Boogie
TTITLE6=The Maddox Brothers and Rose - Water Baby Boogie
TTITLE7=Eddy Arnold - Cuddle Buggin' Baby
TTITLE8=Hank Snow and his Rainbow Ranch Boys - I'm Movin' On
TTITLE9=Cowboy Copas and Grandpa Jones - Feudin' Boogie
TTITLE10=Bob Wills and his Texas Playboys - Ida Red Likes the Boogie
TTITLE11=Hank Garland - Sugarfoot Rag
TTITLE12=Red Foley - Birmingham Bounce
TTITLE13=Hardrock Gunter and the Pebbles - Gonna Dance All Night
TTITLE14=Moon Mullican - Moon's Tune
TTITLE15=Merle Travis - Dry Bread
TTITLE16=Tennessee Ernie and Kay Starr - Ain't Nobody's Business But My 
TTITLE16=Own
TTITLE17=Jimmy Bryant and Speedy West - Bryant's Boogie
TTITLE18=Skeets McDonald and Benny Walker - Birthday Cake Boogie
TTITLE19=The York Brothers - Motor City Boogie
TTITLE20=Red Kirk - Lose Your Blues
TTITLE21=Webb Pierce and his Southern Valley Boys - Groovy Boogie Woogie
TTITLE21=Boy
TTITLE22=Arkie Shibley and his Mountain Dew Boys - Hot Rod Race
TTITLE23=Tommy Duncan's All Stars - All Star Boogie
TTITLE24=Jimmy Dickens - Hillbilly Fever
TTITLE25=Lefty Frizzell - If You've Got the Money, I've Got the Time
EXTD=
EXTT0=
EXTT1=
EXTT2=
EXTT3=
EXTT4=
EXTT5=
EXTT6=
EXTT7=
EXTT8=
EXTT9=
EXTT10=
EXTT11=
EXTT12=
EXTT13=
EXTT14=
EXTT15=
EXTT16=
EXTT17=
EXTT18=
EXTT19=
EXTT20=
EXTT21=
EXTT22=
EXTT23=
EXTT24=
EXTT25=
PLAYORDER=
